<svg width="189" height="26" viewBox="0 0 189 26" fill="none" xmlns="http://www.w3.org/2000/svg">
<path d="M5.4 10.152H5.048V25H0.952V2.664H6.712L11.8 17.512H12.152V2.664H16.248V25H10.488L5.4 10.152ZM28.2355 25.384C25.4622 25.384 23.3608 24.616 21.9315 23.08C20.5022 21.544 19.7875 19.4533 19.7875 16.808C19.7875 15.464 19.9688 14.2587 20.3315 13.192C20.7155 12.104 21.2488 11.1867 21.9315 10.44C22.6355 9.672 23.4782 9.096 24.4595 8.712C25.4622 8.30667 26.5822 8.104 27.8195 8.104C29.0568 8.104 30.1662 8.30667 31.1475 8.712C32.1288 9.096 32.9608 9.65067 33.6435 10.376C34.3262 11.1013 34.8488 11.9867 35.2115 13.032C35.5955 14.056 35.7875 15.208 35.7875 16.488V17.896H24.4915V18.184C24.4915 19.2507 24.8222 20.1147 25.4835 20.776C26.1448 21.416 27.1155 21.736 28.3955 21.736C29.3768 21.736 30.2195 21.5547 30.9235 21.192C31.6275 20.808 32.2355 20.3067 32.7475 19.688L35.3075 22.472C34.6675 23.2613 33.7715 23.944 32.6195 24.52C31.4675 25.096 30.0062 25.384 28.2355 25.384ZM27.8515 11.496C26.8275 11.496 26.0062 11.816 25.3875 12.456C24.7902 13.0747 24.4915 13.9173 24.4915 14.984V15.24H31.1475V14.984C31.1475 13.896 30.8488 13.0427 30.2515 12.424C29.6755 11.8053 28.8755 11.496 27.8515 11.496ZM37.599 8.488H41.535L42.719 21.864H43.039L44.991 8.488H49.151L51.071 21.864H51.391L52.607 8.488H56.351L54.399 25H48.767L47.135 13.608H46.815L45.183 25H39.551L37.599 8.488ZM65.9705 25.384C64.1358 25.384 62.5358 25.1067 61.1705 24.552C59.8265 23.9973 58.8132 23.24 58.1305 22.28L60.7865 19.816C61.4265 20.52 62.1732 21.0747 63.0265 21.48C63.9012 21.864 64.8932 22.056 66.0025 22.056C66.9412 22.056 67.6772 21.9173 68.2105 21.64C68.7438 21.3413 69.0105 20.8933 69.0105 20.296C69.0105 19.8267 68.8292 19.5067 68.4665 19.336C68.1038 19.144 67.6025 18.9947 66.9625 18.888L64.3065 18.472C63.5598 18.3653 62.8665 18.2053 62.2265 17.992C61.5865 17.7573 61.0318 17.448 60.5625 17.064C60.0932 16.68 59.7198 16.2107 59.4425 15.656C59.1652 15.1013 59.0265 14.4293 59.0265 13.64C59.0265 11.912 59.6878 10.5573 61.0105 9.576C62.3332 8.59467 64.1892 8.104 66.5785 8.104C68.1998 8.104 69.5758 8.328 70.7065 8.776C71.8585 9.20267 72.7758 9.82133 73.4585 10.632L71.0905 13.32C70.5998 12.7867 69.9705 12.3387 69.2025 11.976C68.4345 11.6133 67.5065 11.432 66.4185 11.432C64.5838 11.432 63.6665 11.9867 63.6665 13.096C63.6665 13.5867 63.8478 13.928 64.2105 14.12C64.5732 14.2907 65.0745 14.4293 65.7145 14.536L68.3385 14.952C69.0852 15.0587 69.7785 15.2293 70.4185 15.464C71.0585 15.6773 71.6132 15.976 72.0825 16.36C72.5732 16.744 72.9572 17.2133 73.2345 17.768C73.5118 18.3227 73.6505 18.9947 73.6505 19.784C73.6505 21.512 72.9785 22.8773 71.6345 23.88C70.3118 24.8827 68.4238 25.384 65.9705 25.384ZM78.214 2.664H86.054C88.2513 2.664 89.926 3.19733 91.078 4.264C92.2513 5.33067 92.838 6.78133 92.838 8.616C92.838 9.896 92.518 10.92 91.878 11.688C91.2593 12.4347 90.3633 12.9787 89.19 13.32V13.512C90.5767 13.8533 91.6433 14.4507 92.39 15.304C93.158 16.1573 93.542 17.3413 93.542 18.856C93.542 20.7333 92.9447 22.2267 91.75 23.336C90.5767 24.4453 88.9233 25 86.79 25H78.214V2.664ZM85.318 21.64C86.47 21.64 87.3127 21.448 87.846 21.064C88.3793 20.68 88.646 19.976 88.646 18.952V18.024C88.646 17 88.3793 16.296 87.846 15.912C87.3127 15.528 86.47 15.336 85.318 15.336H82.886V21.64H85.318ZM84.71 12.136C85.8407 12.136 86.662 11.9547 87.174 11.592C87.686 11.208 87.942 10.5253 87.942 9.544V8.584C87.942 7.60267 87.686 6.93067 87.174 6.568C86.662 6.20533 85.8407 6.024 84.71 6.024H82.886V12.136H84.71ZM97.3055 21.32H101.114V12.168H97.3055V8.488H105.85V13.16H106.074C106.223 12.5627 106.426 11.9867 106.682 11.432C106.959 10.856 107.3 10.3547 107.706 9.928C108.132 9.48 108.644 9.128 109.242 8.872C109.839 8.616 110.543 8.488 111.354 8.488H112.922V12.84H109.402C108.228 12.84 107.343 13.192 106.746 13.896C106.148 14.5787 105.85 15.4213 105.85 16.424V21.32H111.29V25H97.3055V21.32ZM129.709 25C128.728 25 127.938 24.7547 127.341 24.264C126.744 23.752 126.392 23.0267 126.285 22.088H126.125C125.826 23.176 125.229 23.9973 124.333 24.552C123.458 25.1067 122.381 25.384 121.101 25.384C119.501 25.384 118.21 24.9573 117.229 24.104C116.269 23.2293 115.789 22.0133 115.789 20.456C115.789 18.728 116.418 17.448 117.677 16.616C118.936 15.784 120.781 15.368 123.213 15.368H125.869V14.536C125.869 13.5547 125.634 12.8187 125.165 12.328C124.717 11.816 123.949 11.56 122.861 11.56C121.858 11.56 121.048 11.752 120.429 12.136C119.81 12.52 119.277 13.0213 118.829 13.64L116.237 11.336C116.792 10.3973 117.656 9.62933 118.829 9.032C120.024 8.41333 121.549 8.104 123.405 8.104C125.666 8.104 127.426 8.62667 128.685 9.672C129.965 10.696 130.605 12.2533 130.605 14.344V21.576H132.429V25H129.709ZM122.893 22.28C123.725 22.28 124.429 22.0773 125.005 21.672C125.581 21.2667 125.869 20.68 125.869 19.912V17.928H123.341C121.4 17.928 120.429 18.5787 120.429 19.88V20.52C120.429 21.096 120.653 21.5333 121.101 21.832C121.549 22.1307 122.146 22.28 122.893 22.28ZM142.72 25.384C140.886 25.384 139.286 25.1067 137.921 24.552C136.577 23.9973 135.563 23.24 134.881 22.28L137.536 19.816C138.177 20.52 138.923 21.0747 139.777 21.48C140.651 21.864 141.643 22.056 142.753 22.056C143.691 22.056 144.427 21.9173 144.961 21.64C145.494 21.3413 145.761 20.8933 145.761 20.296C145.761 19.8267 145.579 19.5067 145.217 19.336C144.854 19.144 144.353 18.9947 143.713 18.888L141.057 18.472C140.31 18.3653 139.617 18.2053 138.977 17.992C138.337 17.7573 137.782 17.448 137.312 17.064C136.843 16.68 136.47 16.2107 136.193 15.656C135.915 15.1013 135.777 14.4293 135.777 13.64C135.777 11.912 136.438 10.5573 137.761 9.576C139.083 8.59467 140.939 8.104 143.329 8.104C144.95 8.104 146.326 8.328 147.457 8.776C148.609 9.20267 149.526 9.82133 150.208 10.632L147.841 13.32C147.35 12.7867 146.721 12.3387 145.953 11.976C145.185 11.6133 144.257 11.432 143.169 11.432C141.334 11.432 140.417 11.9867 140.417 13.096C140.417 13.5867 140.598 13.928 140.961 14.12C141.323 14.2907 141.825 14.4293 142.465 14.536L145.089 14.952C145.835 15.0587 146.529 15.2293 147.169 15.464C147.809 15.6773 148.363 15.976 148.833 16.36C149.323 16.744 149.707 17.2133 149.985 17.768C150.262 18.3227 150.401 18.9947 150.401 19.784C150.401 21.512 149.729 22.8773 148.385 23.88C147.062 24.8827 145.174 25.384 142.72 25.384ZM163.124 6.376C162.057 6.376 161.311 6.16267 160.884 5.736C160.479 5.288 160.276 4.75467 160.276 4.136V3.208C160.276 2.568 160.479 2.03467 160.884 1.608C161.311 1.18133 162.057 0.967999 163.124 0.967999C164.191 0.967999 164.927 1.18133 165.332 1.608C165.759 2.03467 165.972 2.568 165.972 3.208V4.136C165.972 4.75467 165.759 5.288 165.332 5.736C164.927 6.16267 164.191 6.376 163.124 6.376ZM155.508 21.32H160.756V12.168H155.508V8.488H165.492V21.32H170.356V25H155.508V21.32ZM173.864 21.32H178.92V5H173.864V1.32H183.656V21.32H188.712V25H173.864V21.32Z" fill="white"/>
</svg>
